<?xml version="1.0" encoding="UTF-8"?>
<!DOCTYPE svg PUBLIC "-//W3C//DTD SVG 1.1//EN" "http://www.w3.org/Graphics/SVG/1.1/DTD/svg11.dtd">
<!-- Creator: CorelDRAW -->
<svg xmlns="http://www.w3.org/2000/svg" xml:space="preserve" width="99.3778mm" height="109.383mm" version="1.1" style="shape-rendering:geometricPrecision; text-rendering:geometricPrecision; image-rendering:optimizeQuality; fill-rule:evenodd; clip-rule:evenodd"
viewBox="0 0 9550.91 10512.45"
 xmlns:xlink="http://www.w3.org/1999/xlink"
 xmlns:xodm="http://www.corel.com/coreldraw/odm/2003">
 <defs>
  <style type="text/css">
   <![CDATA[
    .fil0 {fill:white}
   ]]>
  </style>
 </defs>
 <g id="Camada_x0020_1">
  <metadata id="CorelCorpID_0Corel-Layer"/>
  <g id="_2948721913536">
   <path class="fil0" d="M4817.84 5798.24c575.5,855.9 1401.99,1559.91 2479.57,2112.01l965.02 -1629.14c-733.28,-505 -1272.87,-1056.7 -1618.76,-1655.09 -345.88,-598.38 -518.83,-1288.43 -518.83,-2070.15 0,-578.95 97.45,-1110.34 292.08,-1594.32l1455.51 0c923.17,0 1678.48,755.31 1678.48,1678.48l0 6193.94c0,923.18 -755.32,1678.48 -1678.48,1678.48l-2404.17 0c132.76,-502.72 199.17,-1037.58 199.17,-1604.68 0,-1191.52 -283.34,-2227.94 -849.6,-3109.54z"/>
   <path class="fil0" d="M1678.48 0l2399.73 0c-129.78,499.38 -194.73,1034.28 -194.73,1604.7 0,1182.93 288.82,2225.79 866.45,3128.57l6.2 9.58c-584.33,-867.34 -1449.54,-1580.96 -2596.02,-2140.63l-882.01 1670.64c1431.98,871.64 2147.97,2092.64 2147.97,3662.98 0,590.7 -98.78,1129.05 -296.29,1615.06l-1451.3 0c-923.17,0 -1678.48,-755.31 -1678.48,-1678.48l0 -6193.94c0,-923.18 755.32,-1678.48 1678.48,-1678.48z"/>
  </g>
 </g>
</svg>
