<?xml version="1.0" encoding="UTF-8"?>
<!DOCTYPE svg PUBLIC "-//W3C//DTD SVG 1.1//EN" "http://www.w3.org/Graphics/SVG/1.1/DTD/svg11.dtd">
<!-- Creator: CorelDRAW -->
<svg xmlns="http://www.w3.org/2000/svg" xml:space="preserve" width="70.9689mm" height="28.5992mm" version="1.1" style="shape-rendering:geometricPrecision; text-rendering:geometricPrecision; image-rendering:optimizeQuality; fill-rule:evenodd; clip-rule:evenodd"
viewBox="0 0 7095.82 2859.49"
 xmlns:xlink="http://www.w3.org/1999/xlink"
 xmlns:xodm="http://www.corel.com/coreldraw/odm/2003">
 <defs>
  <style type="text/css">
   <![CDATA[
    .fil1 {fill:white}
    .fil0 {fill:#FEFEFE;fill-rule:nonzero}
   ]]>
  </style>
 </defs>
 <g id="Camada_x0020_1">
  <metadata id="CorelCorpID_0Corel-Layer"/>
  <g id="_2948436987872">
   <path class="fil0" d="M3042.53 1439.75l-174.42 0 0 -728.55 171.74 0 0 101.96c19.68,-37.56 49.64,-67.08 89.89,-88.55 40.25,-21.47 86.77,-32.21 139.54,-32.21 79.61,0 147.15,26.39 202.6,79.17 55.46,52.77 83.19,127.45 83.19,224.06l0 444.11 -175.76 0 0 -395.81c0,-59.93 -14.32,-106.88 -42.93,-140.88 -28.63,-33.98 -67.53,-50.98 -116.73,-50.98 -51.87,0 -94.37,18.12 -127.46,54.34 -33.1,36.22 -49.64,82.96 -49.64,140.21l0 393.12zm639.99 -364.94c0,-107.33 36.22,-197.68 108.68,-271.03 74.24,-74.24 167.7,-111.36 280.41,-111.36 113.6,0 206.63,37.12 279.08,111.36 73.35,73.35 110.02,163.7 110.02,271.03 0,109.12 -36.67,200.36 -110.02,273.71 -72.45,73.34 -165.48,110.01 -279.08,110.01 -113.59,0 -207.07,-36.67 -280.41,-110.01 -72.46,-73.35 -108.68,-164.59 -108.68,-273.71zm602.42 0c0,-61.72 -20.57,-113.6 -61.71,-155.64 -42.04,-42.94 -92.58,-64.41 -151.62,-64.41 -59.03,0 -109.57,21.47 -151.61,64.41 -41.15,42.03 -61.72,93.92 -61.72,155.64 0,62.61 20.57,114.93 61.72,156.98 42.03,42.93 92.58,64.4 151.61,64.4 59.04,0 109.57,-21.47 151.62,-64.4 41.14,-42.04 61.71,-94.37 61.71,-156.98zm543.4 383.72c-126.12,0 -224.07,-48.3 -293.84,-144.9l99.29 -107.34c24.16,32.21 53.89,57.47 89.23,75.81 35.32,18.34 70.89,27.51 106.66,27.51 31.31,0 57.02,-7.38 77.15,-22.14 20.13,-14.76 30.19,-32.88 30.19,-54.34 0,-28.63 -18.34,-51.88 -55.01,-69.77 -11.63,-7.16 -41.14,-19.23 -88.55,-36.22 -42.04,-16.1 -72.9,-29.07 -92.58,-38.9 -81.4,-40.25 -122.1,-101.97 -122.1,-185.16 0,-63.5 24.16,-115.38 72.46,-155.64 48.29,-40.24 112.25,-60.38 191.86,-60.38 102.86,0 186.05,35.78 249.55,107.34l-91.24 111.35c-47.4,-50.08 -101.96,-75.13 -163.69,-75.13 -26.84,0 -48.3,6.48 -64.4,19.46 -16.11,12.97 -24.15,29.3 -24.15,48.96 0,32.21 21.02,55.91 63.05,71.12 106.44,42.04 165.04,66.19 175.76,72.45 82.3,44.72 123.44,106.44 123.44,185.16 0,66.19 -25.94,121.19 -77.82,165.03 -51.88,43.82 -120.31,65.74 -205.28,65.74zm866.74 -198.57l55.01 136.85c-57.25,40.25 -127.46,60.38 -210.65,60.38 -166.37,0 -249.56,-94.82 -249.56,-284.44l0 -313.96 -120.75 0 0 -147.59 123.44 0 0 -257.6 173.07 0 0 257.6 244.19 0 0 147.59 -244.19 0 0 307.24c0,87.67 35.33,131.49 105.99,131.49 41.15,0 82.3,-12.52 123.44,-37.56zm322.01 179.79l-174.42 0 0 -728.55 167.71 0 0 100.62c44.72,-79.61 112.25,-119.41 202.6,-119.41 30.41,0 59.48,4.92 87.21,14.77l-14.76 167.7c-31.31,-9.84 -59.48,-14.76 -84.53,-14.76 -56.35,0 -101.07,19.01 -134.17,57.02 -33.1,38.01 -49.64,93.7 -49.64,167.04l0 355.56zm912.35 -635.97l0 -92.58 166.37 0 0 728.55 -166.37 0 0 -89.9c-63.5,71.56 -142.67,107.33 -237.47,107.33 -104.65,0 -190.97,-36.67 -258.95,-110.02 -67.98,-73.35 -101.97,-165.03 -101.97,-275.05 0,-110.01 33.99,-200.36 101.97,-271.02 68.88,-71.56 155.19,-107.34 258.95,-107.34 93.03,0 172.18,36.67 237.47,110.02zm4.03 271.03c0,-61.72 -20.13,-114.04 -60.37,-156.99 -40.25,-42.93 -91.69,-64.4 -154.31,-64.4 -62.61,0 -114.04,21.47 -154.29,64.4 -39.36,43.83 -59.04,96.16 -59.04,156.99 0,61.71 19.68,114.49 59.04,158.32 40.24,42.93 91.68,64.4 154.29,64.4 62.62,0 114.05,-21.47 154.31,-64.4 40.24,-42.93 60.37,-95.71 60.37,-158.32zm-3719.2 1472.92c-111.81,0 -204.39,-35.78 -277.74,-107.33 -71.56,-71.56 -107.33,-162.8 -107.33,-273.71 0,-110.91 36.22,-202.15 108.67,-273.71 73.35,-71.56 167.26,-107.34 281.76,-107.34 75.14,0 142.9,17.67 203.27,53 60.38,35.33 105.32,84.31 134.84,146.92l-142.22 76.48c-46.51,-76.93 -110.91,-115.39 -193.2,-115.39 -62.61,0 -114.94,21.03 -156.98,63.06 -41.15,41.14 -61.72,93.48 -61.72,156.99 0,62.61 20.13,114.93 60.37,156.98 40.25,42.03 91.24,63.06 152.96,63.06 40.25,0 78.49,-10.51 114.71,-31.54 36.22,-21.02 63.29,-48.52 81.18,-82.51l142.22 83.18c-32.21,59.04 -78.49,105.77 -138.87,140.22 -60.37,34.43 -127.68,51.65 -201.92,51.65zm418.61 -381.04c0,-107.33 36.22,-197.68 108.68,-271.03 74.24,-74.24 167.7,-111.36 280.41,-111.36 113.6,0 206.63,37.12 279.08,111.36 73.35,73.35 110.02,163.7 110.02,271.03 0,109.12 -36.67,200.36 -110.02,273.71 -72.45,73.34 -165.48,110.01 -279.08,110.01 -113.59,0 -207.06,-36.67 -280.41,-110.01 -72.46,-73.35 -108.68,-164.59 -108.68,-273.71zm602.43 0c0,-61.72 -20.58,-113.6 -61.72,-155.64 -42.04,-42.94 -92.58,-64.41 -151.62,-64.41 -59.03,0 -109.56,21.47 -151.61,64.41 -41.14,42.03 -61.72,93.92 -61.72,155.64 0,62.61 20.58,114.93 61.72,156.98 42.04,42.93 92.58,64.4 151.61,64.4 59.04,0 109.57,-21.47 151.62,-64.4 41.14,-42.04 61.72,-94.37 61.72,-156.98zm864.06 -271.03l0 -383.73 174.41 0 0 1019.71 -170.39 0 0 -95.27c-60.82,75.13 -138.19,112.7 -232.12,112.7 -104.65,0 -190.97,-36.22 -258.94,-108.67 -68.88,-74.25 -103.31,-165.49 -103.31,-273.71 0,-106.44 34.43,-196.79 103.31,-271.03 69.76,-73.35 155.64,-110.02 257.6,-110.02 93.03,0 169.5,36.67 229.44,110.02zm-203.94 493.75c63.5,0 114.93,-21.47 154.3,-64.4 39.35,-43.82 59.03,-96.61 59.03,-158.32 0,-61.72 -20.13,-114.04 -60.38,-156.99 -38.46,-42.93 -89.45,-64.4 -152.95,-64.4 -63.51,0 -114.49,21.47 -152.96,64.4 -39.35,43.83 -59.04,96.16 -59.04,156.99 0,61.71 19.69,114.49 59.04,158.32 38.46,42.93 89.45,64.4 152.96,64.4zm1257.18 -237.47c0,23.25 -1.79,49.19 -5.37,77.82l-555.47 0c11.63,51.87 36.44,92.8 74.46,122.76 38.01,29.97 87.44,44.94 148.26,44.94 88.56,0 168.61,-25.05 240.17,-75.13l69.76 124.78c-90.34,67.08 -195.88,100.62 -316.64,100.62 -66.19,0 -125,-10.74 -176.43,-32.21 -51.43,-21.47 -92.8,-50.31 -124.1,-86.54 -31.31,-36.22 -54.79,-76.48 -70.44,-120.75 -15.66,-44.27 -23.49,-91.47 -23.49,-141.55 0,-110.91 34.88,-201.71 104.65,-272.37 70.67,-72.45 161.91,-108.68 273.71,-108.68 104.65,0 190.97,33.11 258.95,99.3 67.98,65.29 101.97,154.29 101.97,267zm-360.93 -220.05c-50.98,0 -94.15,14.76 -129.47,44.28 -35.33,29.52 -58.81,69.76 -70.44,120.75l389.09 0c-7.16,-50.99 -27.96,-91.24 -62.39,-120.75 -34.43,-29.53 -76.7,-44.28 -126.79,-44.28zm728.55 618.53c-126.12,0 -224.07,-48.3 -293.84,-144.9l99.29 -107.34c24.16,32.21 53.89,57.47 89.23,75.81 35.32,18.34 70.89,27.51 106.66,27.51 31.31,0 57.02,-7.38 77.15,-22.14 20.13,-14.76 30.19,-32.88 30.19,-54.34 0,-28.63 -18.34,-51.88 -55,-69.77 -11.64,-7.16 -41.15,-19.23 -88.56,-36.22 -42.04,-16.1 -72.9,-29.07 -92.58,-38.9 -81.4,-40.25 -122.1,-101.97 -122.1,-185.16 0,-63.51 24.16,-115.38 72.46,-155.64 48.29,-40.24 112.25,-60.38 191.86,-60.38 102.86,0 186.05,35.78 249.55,107.34l-91.24 111.35c-47.4,-50.08 -101.96,-75.13 -163.69,-75.13 -26.84,0 -48.3,6.48 -64.4,19.46 -16.1,12.97 -24.15,29.3 -24.15,48.96 0,32.21 21.02,55.91 63.06,71.12 106.43,42.04 165.03,66.19 175.75,72.45 82.3,44.72 123.44,106.44 123.44,185.16 0,66.19 -25.94,121.19 -77.82,165.03 -51.88,43.82 -120.3,65.74 -205.28,65.74z"/>
   <g>
    <path class="fil1" d="M1310.5 1577.18c156.55,232.81 381.35,424.31 674.47,574.48l262.5 -443.14c-199.46,-137.36 -346.24,-287.43 -440.32,-450.2 -94.09,-162.77 -141.13,-350.47 -141.13,-563.1 0,-157.49 26.51,-302.03 79.45,-433.67l395.92 0c251.11,0 456.56,205.45 456.56,456.56l0 1684.82c0,251.11 -205.45,456.57 -456.56,456.57l-653.96 0c36.11,-136.75 54.17,-282.24 54.17,-436.49 0,-324.1 -77.07,-606.03 -231.1,-845.82z"/>
    <path class="fil1" d="M456.56 0l652.75 0c-35.29,135.84 -52.97,281.33 -52.97,436.49 0,321.77 78.57,605.44 235.69,851l1.68 2.61c-158.95,-235.92 -394.29,-430.05 -706.14,-582.27l-239.91 454.43c389.51,237.09 584.27,569.21 584.27,996.36 0,160.69 -26.87,307.11 -80.6,439.32l-394.77 0c-251.11,0 -456.56,-205.46 -456.56,-456.57l0 -1684.82c0,-251.11 205.45,-456.56 456.56,-456.56z"/>
   </g>
  </g>
 </g>
</svg>
