<?xml version="1.0" encoding="UTF-8"?>
<!DOCTYPE svg PUBLIC "-//W3C//DTD SVG 1.1//EN" "http://www.w3.org/Graphics/SVG/1.1/DTD/svg11.dtd">
<!-- Creator: CorelDRAW -->
<svg xmlns="http://www.w3.org/2000/svg" xml:space="preserve" width="79.9664mm" height="32.3026mm" version="1.1" style="shape-rendering:geometricPrecision; text-rendering:geometricPrecision; image-rendering:optimizeQuality; fill-rule:evenodd; clip-rule:evenodd"
viewBox="0 0 7995.58 3229.83"
 xmlns:xlink="http://www.w3.org/1999/xlink"
 xmlns:xodm="http://www.corel.com/coreldraw/odm/2003">
 <defs>
  <style type="text/css">
   <![CDATA[
    .fil0 {fill:white}
    .fil1 {fill:#FEFEFE;fill-rule:nonzero}
   ]]>
  </style>
 </defs>
 <g id="Camada_x0020_1">
  <metadata id="CorelCorpID_0Corel-Layer"/>
  <g id="_2948463331184">
   <g>
    <path class="fil0" d="M690.35 1042.9l-276.53 523.79c441.92,279.72 717.23,673.39 748.08,1208.78 2.43,42.18 -11.75,81.09 -40.75,111.81 -29.04,30.77 -66.98,47.12 -109.29,47.12l-496.16 0c-283.72,0 -515.69,-231.97 -515.69,-515.69l0 -1903.02c0,-283.72 231.98,-515.69 515.69,-515.69l392.01 0c80.65,0 146.94,63.69 150.17,144.26 13.9,346.43 102.57,674.63 286.12,970.33 38.52,62.06 27.3,141.75 -26.89,190.73 -54.07,48.9 -134.69,52.09 -192.46,7.63 -135.3,-104.14 -281.86,-193.26 -434.29,-270.05z"/>
    <path class="fil0" d="M1930.53 2187.13l303.35 -512.12c-219.38,-155.56 -421.08,-345.91 -556.44,-580.05 -113.71,-196.73 -171.96,-413.56 -186.53,-639.58 -2.73,-42.36 11.31,-81.49 40.34,-112.46 29.06,-31 67.16,-47.49 109.64,-47.49l495.35 0c283.71,0 515.68,231.97 515.68,515.68l0 1903.03c0,283.71 -231.97,515.69 -515.68,515.69l-391.57 0c-80.89,0 -147.32,-64.1 -150.19,-144.95 -11.98,-336.55 -93.47,-658.52 -269.6,-947.49 -37.96,-62.27 -26.18,-141.73 28.22,-190.31 54.35,-48.54 134.71,-51.31 192.28,-6.61 120.59,93.64 250.21,175.32 385.14,246.67z"/>
   </g>
   <path class="fil1" d="M3249.88 1549.93l-204.22 0 0 -853.01 201.07 0 0 119.39c23.05,-43.98 58.12,-78.55 105.26,-103.68 47.12,-25.14 101.59,-37.71 163.37,-37.71 93.21,0 172.28,30.9 237.21,92.69 64.93,61.78 97.4,149.23 97.4,262.34l0 519.97 -205.79 0 0 -463.42c0,-70.17 -16.76,-125.14 -50.26,-164.95 -33.52,-39.79 -79.07,-59.69 -136.67,-59.69 -60.74,0 -110.49,21.21 -149.23,63.62 -38.75,42.41 -58.12,97.14 -58.12,164.16l0 460.28zm749.32 -427.28c0,-125.67 42.4,-231.45 127.24,-317.33 86.92,-86.92 196.36,-130.38 328.32,-130.38 133,0 241.92,43.46 326.75,130.38 85.88,85.88 128.81,191.65 128.81,317.33 0,127.76 -42.93,234.59 -128.81,320.47 -84.83,85.87 -193.74,128.81 -326.75,128.81 -133,0 -242.44,-42.94 -328.32,-128.81 -84.84,-85.88 -127.24,-192.7 -127.24,-320.47zm705.33 0c0,-72.26 -24.09,-133.01 -72.26,-182.23 -49.21,-50.27 -108.39,-75.41 -177.51,-75.41 -69.12,0 -128.29,25.14 -177.51,75.41 -48.18,49.21 -72.27,109.97 -72.27,182.23 0,73.31 24.09,134.57 72.27,183.8 49.21,50.26 108.39,75.4 177.51,75.4 69.12,0 128.29,-25.14 177.51,-75.4 48.17,-49.22 72.26,-110.49 72.26,-183.8zm636.23 449.28c-147.67,0 -262.35,-56.56 -344.03,-169.66l116.25 -125.68c28.28,37.71 63.09,67.29 104.46,88.77 41.36,21.47 83,32.2 124.89,32.2 36.66,0 66.76,-8.64 90.33,-25.92 23.57,-17.29 35.35,-38.48 35.35,-63.62 0,-33.52 -21.48,-60.74 -64.41,-81.69 -13.62,-8.38 -48.17,-22.52 -103.68,-42.41 -49.22,-18.85 -85.36,-34.04 -108.4,-45.55 -95.3,-47.12 -142.95,-119.39 -142.95,-216.79 0,-74.35 28.28,-135.09 84.83,-182.22 56.55,-47.13 131.43,-70.7 224.64,-70.7 120.43,0 217.83,41.89 292.18,125.68l-106.82 130.37c-55.5,-58.64 -119.38,-87.97 -191.65,-87.97 -31.42,0 -56.55,7.6 -75.4,22.78 -18.85,15.19 -28.28,34.31 -28.28,57.34 0,37.71 24.61,65.45 73.83,83.26 124.62,49.22 193.22,77.5 205.79,84.83 96.35,52.36 144.52,124.62 144.52,216.79 0,77.49 -30.37,141.9 -91.11,193.21 -60.74,51.31 -140.86,76.98 -240.35,76.98zm1014.81 -232.5l64.4 160.23c-67.02,47.13 -149.23,70.69 -246.63,70.69 -194.79,0 -292.19,-111.01 -292.19,-333.03l0 -367.59 -141.38 0 0 -172.81 144.52 0 0 -301.61 202.65 0 0 301.61 285.9 0 0 172.81 -285.9 0 0 359.73c0,102.64 41.36,153.95 124.09,153.95 48.18,0 96.36,-14.66 144.53,-43.98zm377.02 210.5l-204.22 0 0 -853.01 196.36 0 0 117.82c52.36,-93.21 131.43,-139.81 237.21,-139.81 35.61,0 69.64,5.76 102.11,17.28l-17.28 196.36c-36.66,-11.52 -69.64,-17.28 -98.97,-17.28 -65.98,0 -118.34,22.26 -157.09,66.76 -38.75,44.51 -58.12,109.71 -58.12,195.57l0 416.29zm1068.21 -744.61l0 -108.4 194.79 0 0 853.01 -194.79 0 0 -105.25c-74.35,83.78 -167.04,125.66 -278.04,125.66 -122.53,0 -223.6,-42.93 -303.19,-128.81 -79.59,-85.88 -119.39,-193.21 -119.39,-322.03 0,-128.82 39.8,-234.59 119.39,-317.33 80.64,-83.78 181.7,-125.67 303.19,-125.67 108.92,0 201.59,42.93 278.04,128.81zm4.71 317.33c0,-72.26 -23.56,-133.53 -70.68,-183.8 -47.13,-50.27 -107.35,-75.41 -180.66,-75.41 -73.31,0 -133.53,25.14 -180.66,75.41 -46.08,51.31 -69.12,112.58 -69.12,183.8 0,72.26 23.04,134.05 69.12,185.37 47.12,50.26 107.35,75.4 180.66,75.4 73.31,0 133.52,-25.14 180.66,-75.4 47.12,-50.27 70.68,-112.06 70.68,-185.37zm-4354.54 1724.53c-130.91,0 -239.3,-41.88 -325.18,-125.67 -83.78,-83.78 -125.67,-190.6 -125.67,-320.47 0,-129.85 42.41,-236.68 127.24,-320.46 85.87,-83.79 195.83,-125.67 329.89,-125.67 87.98,0 167.31,20.69 238,62.05 70.69,41.36 123.31,98.71 157.87,172.01l-166.51 89.55c-54.46,-90.07 -129.86,-135.1 -226.22,-135.1 -73.3,0 -134.57,24.62 -183.79,73.83 -48.18,48.17 -72.27,109.45 -72.27,183.8 0,73.32 23.57,134.58 70.69,183.81 47.13,49.21 106.83,73.83 179.09,73.83 47.12,0 91.9,-12.31 134.31,-36.92 42.41,-24.62 74.1,-56.81 95.05,-96.62l166.51 97.4c-37.71,69.12 -91.9,123.84 -162.59,164.17 -70.69,40.31 -149.5,60.47 -236.42,60.47zm490.13 -446.14c0,-125.66 42.41,-231.44 127.24,-317.32 86.92,-86.93 196.36,-130.38 328.32,-130.38 133,0 241.92,43.45 326.75,130.38 85.88,85.88 128.81,191.65 128.81,317.32 0,127.77 -42.93,234.59 -128.81,320.47 -84.83,85.88 -193.74,128.82 -326.75,128.82 -133,0 -242.44,-42.94 -328.32,-128.82 -84.83,-85.88 -127.24,-192.69 -127.24,-320.47zm705.34 0c0,-72.25 -24.09,-133 -72.26,-182.22 -49.22,-50.27 -108.4,-75.41 -177.52,-75.41 -69.12,0 -128.29,25.14 -177.51,75.41 -48.18,49.21 -72.27,109.97 -72.27,182.22 0,73.32 24.09,134.58 72.27,183.81 49.21,50.26 108.39,75.4 177.51,75.4 69.12,0 128.29,-25.14 177.52,-75.4 48.17,-49.22 72.26,-110.49 72.26,-183.81zm1011.66 -317.32l0 -449.28 204.22 0 0 1193.89 -199.5 0 0 -111.54c-71.22,87.97 -161.8,131.95 -271.76,131.95 -122.53,0 -223.6,-42.41 -303.19,-127.24 -80.64,-86.92 -120.96,-193.74 -120.96,-320.47 0,-124.62 40.32,-230.39 120.96,-317.32 81.69,-85.88 182.23,-128.81 301.62,-128.81 108.92,0 198.45,42.93 268.61,128.81zm-238.77 578.09c74.35,0 134.57,-25.14 180.66,-75.4 46.07,-51.32 69.12,-113.12 69.12,-185.38 0,-72.25 -23.57,-133.52 -70.7,-183.8 -45.03,-50.26 -104.73,-75.4 -179.08,-75.4 -74.36,0 -134.05,25.14 -179.09,75.4 -46.08,51.32 -69.12,112.59 -69.12,183.8 0,72.26 23.04,134.05 69.12,185.38 45.03,50.26 104.73,75.4 179.09,75.4zm1471.94 -278.05c0,27.23 -2.1,57.6 -6.29,91.12l-650.35 0c13.61,60.74 42.67,108.66 87.18,143.73 44.51,35.09 102.38,52.63 173.59,52.63 103.69,0 197.41,-29.33 281.19,-87.98l81.69 146.1c-105.78,78.54 -229.35,117.81 -370.73,117.81 -77.5,0 -146.36,-12.57 -206.58,-37.7 -60.21,-25.15 -108.66,-58.91 -145.3,-101.33 -36.66,-42.41 -64.15,-89.55 -82.48,-141.38 -18.33,-51.84 -27.49,-107.09 -27.49,-165.74 0,-129.85 40.84,-236.16 122.52,-318.89 82.74,-84.83 189.56,-127.24 320.47,-127.24 122.53,0 223.6,38.74 303.19,116.24 79.59,76.45 119.39,180.66 119.39,312.61zm-422.58 -257.63c-59.69,0 -110.23,17.28 -151.59,51.84 -41.36,34.56 -68.86,81.69 -82.47,141.38l455.56 0c-8.38,-59.69 -32.73,-106.83 -73.04,-141.38 -40.32,-34.57 -89.81,-51.84 -148.46,-51.84zm853.01 724.19c-147.67,0 -262.35,-56.56 -344.02,-169.67l116.24 -125.67c28.28,37.71 63.09,67.29 104.47,88.76 41.36,21.47 83,32.21 124.88,32.21 36.66,0 66.76,-8.64 90.33,-25.92 23.57,-17.29 35.35,-38.49 35.35,-63.62 0,-33.52 -21.47,-60.74 -64.41,-81.69 -13.62,-8.38 -48.17,-22.52 -103.68,-42.41 -49.22,-18.85 -85.35,-34.04 -108.4,-45.55 -95.3,-47.13 -142.95,-119.39 -142.95,-216.79 0,-74.35 28.28,-135.09 84.83,-182.23 56.55,-47.12 131.43,-70.69 224.64,-70.69 120.43,0 217.83,41.89 292.19,125.67l-106.83 130.38c-55.5,-58.64 -119.38,-87.97 -191.65,-87.97 -31.42,0 -56.54,7.59 -75.39,22.78 -18.86,15.19 -28.29,34.31 -28.29,57.34 0,37.71 24.62,65.45 73.84,83.26 124.62,49.22 193.21,77.49 205.78,84.83 96.35,52.36 144.52,124.62 144.52,216.78 0,77.5 -30.37,141.9 -91.11,193.22 -60.74,51.31 -140.86,76.98 -240.35,76.98z"/>
  </g>
 </g>
</svg>
