<?xml version="1.0" encoding="UTF-8"?>
<!DOCTYPE svg PUBLIC "-//W3C//DTD SVG 1.1//EN" "http://www.w3.org/Graphics/SVG/1.1/DTD/svg11.dtd">
<!-- Creator: CorelDRAW -->
<svg xmlns="http://www.w3.org/2000/svg" xml:space="preserve" width="234.468mm" height="84.4229mm" version="1.1" style="shape-rendering:geometricPrecision; text-rendering:geometricPrecision; image-rendering:optimizeQuality; fill-rule:evenodd; clip-rule:evenodd"
viewBox="0 0 23445.76 8441.91"
 xmlns:xlink="http://www.w3.org/1999/xlink"
 xmlns:xodm="http://www.corel.com/coreldraw/odm/2003">
 <defs>
  <style type="text/css">
   <![CDATA[
    .fil0 {fill:#FEFEFE}
    .fil1 {fill:#FEFEFE;fill-rule:nonzero}
   ]]>
  </style>
 </defs>
 <g id="Camada_x0020_1">
  <metadata id="CorelCorpID_0Corel-Layer"/>
  <g id="_2912775564128">
   <path class="fil0" d="M1403.06 0l1475.8 0 -0.09 10.77c0,1246.65 304.39,2345.7 913.16,3297 608.73,951.44 1503.6,1729.64 2684.61,2334.74l1016.94 -1716.85c-772.7,-532.17 -1341.41,-1113.57 -1705.89,-1744.17 -364.53,-630.59 -546.8,-1357.77 -546.8,-2181.49l1798.06 0c771.72,0 1403.06,631.34 1403.06,1403.06l0 5635.8c0,771.72 -631.34,1403.06 -1403.06,1403.06l-1475.71 0 0.05 -10.81c0,-2551.57 -1232.12,-4428.83 -3696.14,-5631.71l-929.53 1760.63c1509.05,918.52 2263.65,2205.29 2263.65,3860.17l-0.09 21.72 -1798.02 0c-771.72,0 -1403.06,-631.34 -1403.06,-1403.06l0 -5635.8c0,-771.72 631.34,-1403.06 1403.06,-1403.06z"/>
   <g>
    <path class="fil1" d="M10975.99 7088.6c-350.37,0 -634.35,-107.5 -852.03,-322.49 -217.62,-217.63 -326.44,-496.34 -326.44,-836.09 0,-339.74 108.82,-617.09 326.44,-832.09 217.68,-217.67 504.34,-326.49 859.98,-326.49 238.88,0 452.56,56.38 641.03,169.19 188.43,112.81 330.44,276.74 425.99,491.73l-621.09 322.5c-103.51,-172.53 -245.51,-258.82 -425.99,-258.82 -127.43,0 -231.6,41.14 -312.57,123.43 -80.94,82.3 -121.42,185.79 -121.42,310.55 0,127.39 40.49,232.91 121.42,316.53 80.97,83.61 183.81,125.4 308.57,125.4 92.93,0 177.84,-23.88 254.83,-71.66 76.98,-47.78 132.69,-110.19 167.21,-187.11l625.09 370.26c-98.24,191.11 -241.56,339.75 -430.03,445.89 -188.43,106.18 -402.1,159.26 -640.99,159.26zm3658.94 -1154.58c0,329.13 -112.8,606.47 -338.42,832.09 -225.63,225.62 -518.92,338.43 -879.92,338.43 -360.95,0 -654.24,-112.81 -879.87,-338.43 -222.94,-225.62 -334.43,-502.97 -334.43,-832.09 0,-329.17 111.49,-606.52 334.43,-832.14 225.63,-225.62 518.92,-338.43 879.87,-338.43 361,0 654.29,112.81 879.92,338.43 225.62,225.62 338.42,502.98 338.42,832.14zm-1218.34 437.93c124.75,0 228.96,-41.8 312.58,-125.4 83.61,-83.62 125.4,-189.13 125.4,-316.53 0,-122.12 -41.8,-224.96 -125.4,-308.57 -83.62,-83.62 -187.82,-125.41 -312.58,-125.41 -122.07,0 -224.91,41.8 -308.53,125.41 -83.61,83.61 -125.41,186.44 -125.41,308.57 0,127.39 41.81,232.91 125.41,316.53 83.62,83.61 186.45,125.4 308.53,125.4zm3069.69 -1413.4l0 -959.53 784.36 0 0 3041.8 -756.48 0 0 -155.27c-161.91,140.69 -357.01,210.99 -585.26,210.99 -305.24,0 -561.37,-108.82 -768.43,-326.44 -204.37,-220.31 -306.55,-499.03 -306.55,-836.09 0,-334.43 103.5,-611.83 310.55,-832.14 207,-220.31 463.14,-330.44 768.38,-330.44 214.99,0 399.46,62.36 553.42,187.11zm31.84 971.47c0,-124.75 -42.47,-230.28 -127.39,-316.52 -84.93,-86.3 -191.1,-129.41 -318.5,-129.41 -127.43,0 -233.57,43.12 -318.54,129.41 -84.93,86.24 -127.39,191.76 -127.39,316.52 0,127.39 42.47,234.89 127.39,322.5 84.97,87.61 191.1,131.38 318.54,131.38 127.39,0 233.57,-43.78 318.5,-131.38 84.93,-87.61 127.39,-195.1 127.39,-322.5zm3416.07 -55.72c0,92.87 -7.95,195.05 -23.89,306.55l-1532.85 0c82.3,185.79 242.88,278.71 481.77,278.71 233.57,0 447.24,-63.72 641.03,-191.1l302.56 517.55c-283.99,201.73 -611.79,302.6 -983.42,302.6 -392.79,0 -696.71,-110.13 -911.71,-330.44 -214.99,-222.99 -322.5,-497.7 -322.5,-824.14 0,-334.43 110.14,-611.83 330.45,-832.14 225.62,-220.31 514.92,-330.44 867.92,-330.44 331.8,0 606.52,99.51 824.19,298.61 217.63,193.73 326.45,461.82 326.45,804.25zm-1150.64 -489.72c-207,0 -346.37,91.56 -418.04,274.72l824.14 0c-66.35,-183.16 -201.68,-274.72 -406.1,-274.72zm2321.16 1719.96c-387.52,0 -728.59,-119.44 -1023.19,-358.32l326.45 -537.49c252.19,172.53 481.76,258.77 688.81,258.77 132.7,0 199.05,-34.52 199.05,-103.5 0,-31.89 -33.15,-59.73 -99.55,-83.62 -5.27,-2.68 -89.59,-29.2 -252.81,-79.66 -163.22,-50.41 -262.11,-84.93 -296.63,-103.5 -289.3,-122.12 -433.94,-327.81 -433.94,-617.1 0,-214.99 87.56,-388.89 262.77,-521.59 177.8,-132.7 410.05,-199.06 696.72,-199.06 315.86,0 601.2,91.56 856.02,274.72l-318.54 521.55c-196.38,-116.76 -378.22,-175.16 -545.44,-175.16 -116.76,0 -175.16,30.52 -175.16,91.56 0,58.4 68.98,103.55 207,135.38 193.78,42.46 366.31,102.18 517.59,179.16 132.7,68.98 228.26,147.98 286.67,236.9 58.4,88.88 87.61,198.4 87.61,328.47 0,225.58 -87.61,407.42 -262.78,545.44 -172.53,138.01 -412.73,207.05 -720.65,207.05z"/>
    <path class="fil1" d="M10669.45 3614.79l-780.36 0 0 -2213.66 764.43 0 0 306.6c53.09,-103.55 142.01,-190.44 266.77,-260.79 124.75,-70.35 266.72,-105.53 425.99,-105.53 236.25,0 435.3,79.62 597.2,238.88 167.22,153.96 250.83,378.26 250.83,672.87l0 1361.63 -784.31 0 0 -1158.58c0,-127.38 -30.52,-226.28 -91.61,-296.63 -61.04,-70.35 -145.96,-105.48 -254.78,-105.48 -116.8,0 -211.7,39.13 -284.69,117.41 -72.98,78.3 -109.47,181.19 -109.47,308.58l0 1134.69zm4244.16 -1106.8c0,329.12 -112.8,606.46 -338.43,832.09 -225.62,225.62 -518.91,338.42 -879.91,338.42 -360.95,0 -654.25,-112.8 -879.87,-338.42 -222.94,-225.63 -334.43,-502.98 -334.43,-832.09 0,-329.18 111.49,-606.52 334.43,-832.14 225.62,-225.62 518.92,-338.43 879.87,-338.43 361,0 654.29,112.81 879.91,338.43 225.63,225.62 338.43,502.97 338.43,832.14zm-1218.34 437.93c124.75,0 228.96,-41.8 312.57,-125.41 83.62,-83.61 125.41,-189.13 125.41,-316.52 0,-122.12 -41.8,-224.96 -125.41,-308.58 -83.61,-83.61 -187.81,-125.41 -312.57,-125.41 -122.07,0 -224.92,41.81 -308.53,125.41 -83.61,83.62 -125.41,186.45 -125.41,308.58 0,127.38 41.81,232.91 125.41,316.52 83.61,83.62 186.45,125.41 308.53,125.41zm2376.93 732.59c-387.53,0 -728.6,-119.43 -1023.2,-358.32l326.45 -537.49c252.19,172.53 481.76,258.78 688.81,258.78 132.7,0 199.05,-34.52 199.05,-103.5 0,-31.89 -33.15,-59.73 -99.55,-83.62 -5.27,-2.68 -89.59,-29.2 -252.81,-79.66 -163.22,-50.41 -262.11,-84.93 -296.63,-103.5 -289.29,-122.12 -433.94,-327.81 -433.94,-617.1 0,-214.99 87.57,-388.89 262.78,-521.6 177.79,-132.69 410.04,-199.05 696.71,-199.05 315.86,0 601.2,91.56 856.02,274.72l-318.54 521.55c-196.38,-116.76 -378.22,-175.16 -545.44,-175.16 -116.76,0 -175.16,30.52 -175.16,91.56 0,58.4 68.98,103.55 207,135.37 193.78,42.47 366.31,102.19 517.59,179.16 132.7,68.99 228.26,147.99 286.67,236.91 58.4,88.88 87.61,198.4 87.61,328.47 0,225.58 -87.61,407.42 -262.78,545.44 -172.53,138.01 -412.73,207.04 -720.64,207.04zm2826.8 -812.19l199.1 625.04c-212.36,119.44 -456.56,179.16 -732.59,179.16 -565.37,0 -848.03,-310.55 -848.03,-931.64l0 -692.76 -326.5 0 0 -644.99 334.43 0 0 -784.31 776.37 0 0 784.31 668.87 0 0 644.99 -668.87 0 0 581.3c0,220.26 86.29,330.45 258.77,330.45 90.29,0 203.05,-30.52 338.43,-91.56zm1194.47 748.48l-780.37 0 0 -2213.66 752.49 0 0 262.78c143.32,-215 335.75,-322.5 577.31,-322.5 100.87,0 195.06,21.26 282.66,63.72l-63.72 744.54c-106.13,-37.2 -208.31,-55.78 -306.55,-55.78 -307.87,0 -461.82,205.73 -461.82,617.15l0 903.75zm2615.71 -2050.44l0 -163.22 736.59 0 0 2213.66 -736.59 0 0 -155.27c-180.48,140.7 -387.48,211 -621.09,211 -315.82,0 -574.63,-111.44 -776.37,-334.43 -201.68,-225.58 -302.55,-504.29 -302.55,-836.09 0,-329.12 102.19,-603.83 306.55,-824.14 204.37,-220.31 461.83,-330.44 772.38,-330.44 244.2,0 451.24,72.98 621.09,218.94zm-469.77 1393.52c127.38,0 234.88,-43.78 322.49,-131.38 87.57,-90.25 131.39,-197.74 131.39,-322.5 0,-122.12 -43.83,-226.94 -131.39,-314.55 -87.61,-87.56 -195.1,-131.38 -322.49,-131.38 -127.43,0 -234.23,43.83 -320.52,131.38 -86.25,87.61 -129.41,192.42 -129.41,314.55 0,124.75 43.83,232.25 131.38,322.5 87.61,87.61 193.79,131.38 318.55,131.38z"/>
   </g>
  </g>
 </g>
</svg>
